<svg id="Logo" xmlns="http://www.w3.org/2000/svg" viewBox="0 0 79.7 45.2"><defs><style>.cls-1{fill:#fff;}</style></defs><path class="cls-1" d="M45,40.2A22.5,22.5,0,1,1,22.5,17.6,22.56,22.56,0,0,1,45,40.2" transform="translate(0 -17.6)"/><path class="cls-1" d="M69.7,40.2c0,11.8-5,21.3-11.2,21.3S47.3,52,47.3,40.2s5-21.3,11.2-21.3,11.2,9.6,11.2,21.3" transform="translate(0 -17.6)"/><path class="cls-1" d="M79.7,40.2c0,10.5-1.8,19.1-4,19.1s-4-8.6-4-19.1,1.8-19.1,4-19.1,4,8.6,4,19.1" transform="translate(0 -17.6)"/></svg>