<svg xmlns="http://www.w3.org/2000/svg" viewBox="0 0 80 80"><g transform="matrix(3.3333333333333335,0,0,3.3333333333333335,0,0)"><defs><style>.a{fill:none;stroke:#000000;stroke-linecap:round;stroke-linejoin:round;stroke-width:1.5px;}</style></defs><path class="a" d="M1.033,22.406l6.772-3.063h0a5.118,5.118,0,0,0,3.855.724l5.922-1.244"></path><path class="a" d="M11.889,6.786,13.4,3.828c.02-.04.039-.081.055-.123a1.538,1.538,0,0,0-2.526-1.65l-4.608,4.7a5.989,5.989,0,0,0-1.7,4.325l-.013-.022L1.033,12.8"></path><path class="a" d="M17.279,18.558A6.434,6.434,0,1,1,18.886,7.705"></path><line class="a" x1="14.838" y1="13.072" x2="13.569" y2="10.833"></line><line class="a" x1="16.761" y1="6.525" x2="17.942" y2="3.364"></line><line class="a" x1="16.914" y1="2.981" x2="19.129" y2="3.808"></line><rect class="a" x="18.658" y="10.072" width="4.309" height="3" rx="1.5"></rect><rect class="a" x="18.658" y="7.072" width="4.309" height="3" rx="1.5"></rect><rect class="a" x="18.658" y="13.072" width="4.309" height="3" rx="1.5"></rect><rect class="a" x="16.908" y="16.072" width="4.248" height="3" rx="1.5"></rect></g></svg>