<svg viewBox="0 0 80 80" xmlns="http://www.w3.org/2000/svg"><g transform="matrix(3.3333333333333335,0,0,3.3333333333333335,0,0)"><path d="M0.801 20.637 A2.613 2.613 0 1 0 6.027 20.637 A2.613 2.613 0 1 0 0.801 20.637 Z" fill="none" stroke="#000000" stroke-linecap="round" stroke-linejoin="round" stroke-width="1.5"></path><path d="M9.511 18.17H14.488V23.147000000000002H9.511z" fill="none" stroke="#000000" stroke-linecap="round" stroke-linejoin="round" stroke-width="1.5"></path><path d="M23.199 23.147L17.226 23.147 20.212 17.672 23.199 23.147z" fill="none" stroke="#000000" stroke-linecap="round" stroke-linejoin="round" stroke-width="1.5"></path><path d="M15.733,4.585A3.733,3.733,0,1,0,10.507,8V9.811h2.986V8A3.73,3.73,0,0,0,15.733,4.585Z" fill="none" stroke="#000000" stroke-linecap="round" stroke-linejoin="round" stroke-width="1.5"></path><path d="M3.539 15.432L3.539 12.944 20.461 12.944 20.461 15.432" fill="none" stroke="#000000" stroke-linecap="round" stroke-linejoin="round" stroke-width="1.5"></path><path d="M19.775 5.229L21.268 5.229" fill="none" stroke="#000000" stroke-linecap="round" stroke-linejoin="round" stroke-width="1.5"></path><path d="M19.466 8.653L20.521 9.709" fill="none" stroke="#000000" stroke-linecap="round" stroke-linejoin="round" stroke-width="1.5"></path><path d="M19.466 1.806L20.521 0.75" fill="none" stroke="#000000" stroke-linecap="round" stroke-linejoin="round" stroke-width="1.5"></path><path d="M4.225 5.229L2.732 5.229" fill="none" stroke="#000000" stroke-linecap="round" stroke-linejoin="round" stroke-width="1.5"></path><path d="M4.534 8.653L3.478 9.709" fill="none" stroke="#000000" stroke-linecap="round" stroke-linejoin="round" stroke-width="1.5"></path><path d="M4.534 1.806L3.478 0.75" fill="none" stroke="#000000" stroke-linecap="round" stroke-linejoin="round" stroke-width="1.5"></path><path d="M12 9.811L12 14.935" fill="none" stroke="#000000" stroke-linecap="round" stroke-linejoin="round" stroke-width="1.5"></path></g></svg>